<svg width="1169" height="187" viewBox="0 0 1169 187" fill="none" xmlns="http://www.w3.org/2000/svg">
<path fill-rule="evenodd" clip-rule="evenodd" d="M239.628 133.032C234.386 133.032 229.751 129.629 228.18 124.628L192.35 10.5739C188.032 -3.35954 169.385 -3.55579 165.852 10.1815L144.943 89.4122C141.932 100.823 125.987 101.489 122.034 90.3698L105.596 44.1321C103.633 38.6372 98.5301 35.301 92.8381 35.301C87.1461 35.301 82.043 38.8334 79.2951 43.9358L46.5939 125.497C44.7691 130.049 40.3591 133.032 35.4557 133.032H12C5.37257 133.032 0 138.404 0 145.032V149.88C0 156.507 5.37258 161.88 12 161.88H53.1905C58.8825 161.88 63.9857 158.74 66.1447 153.245L79.7675 117.979C83.7829 107.584 98.5645 107.799 102.276 118.306L122.5 175.556C122.745 176.25 122.911 176.971 123.085 177.685C126.163 190.336 146.315 190.16 149.562 176.795L169.298 102.697C172.395 91.0724 188.766 90.7277 192.349 102.212L207.659 151.283C209.229 157.366 214.725 161.88 221.006 161.88H262C268.627 161.88 274 156.507 274 149.88V145.032C274 138.404 268.627 133.032 262 133.032H239.628Z" fill="#E8401F"/>
<path d="M322 155.352V51.204H344.77L346.948 65.46H348.334C350.578 62.028 353.218 59.058 356.254 56.55C359.422 54.042 362.92 52.128 366.748 50.808C370.708 49.488 374.932 48.828 379.42 48.828C386.02 48.828 391.696 50.148 396.448 52.788C401.332 55.428 405.094 59.652 407.734 65.46H409.12C411.364 62.028 414.07 59.058 417.238 56.55C420.406 54.042 424.036 52.128 428.128 50.808C432.22 49.488 436.576 48.828 441.196 48.828C447.796 48.828 453.472 50.016 458.224 52.392C463.108 54.768 466.936 58.662 469.708 64.074C472.48 69.354 473.866 76.218 473.866 84.666V155.352H446.344V89.616C446.344 86.316 445.948 83.544 445.156 81.3C444.496 78.924 443.506 77.076 442.186 75.756C440.866 74.304 439.216 73.248 437.236 72.588C435.256 71.928 433.144 71.598 430.9 71.598C427.204 71.598 423.904 72.588 421 74.568C418.096 76.548 415.786 79.254 414.07 82.686C412.486 86.118 411.694 90.078 411.694 94.566V155.352H384.172V89.616C384.172 86.316 383.776 83.544 382.984 81.3C382.324 78.924 381.334 77.076 380.014 75.756C378.694 74.304 377.044 73.248 375.064 72.588C373.216 71.928 371.104 71.598 368.728 71.598C365.164 71.598 361.864 72.588 358.828 74.568C355.924 76.548 353.614 79.254 351.898 82.686C350.314 86.118 349.522 90.078 349.522 94.566V155.352H322Z" fill="black"/>
<path d="M515.966 157.728C512.534 157.728 508.838 157.332 504.878 156.54C501.05 155.748 497.42 154.362 493.988 152.382C490.556 150.27 487.718 147.3 485.474 143.472C483.362 139.512 482.306 134.496 482.306 128.424C482.306 121.164 483.89 115.158 487.058 110.406C490.226 105.654 494.714 101.958 500.522 99.318C506.462 96.546 513.524 94.632 521.708 93.576C529.892 92.52 538.934 91.992 548.834 91.992V84.27C548.834 81.234 548.306 78.594 547.25 76.35C546.326 74.106 544.61 72.324 542.102 71.004C539.726 69.684 536.36 69.024 532.004 69.024C527.648 69.024 524.084 69.552 521.312 70.608C518.672 71.664 516.758 73.05 515.57 74.766C514.514 76.35 513.986 78.132 513.986 80.112V82.488H487.256C487.124 81.828 487.058 81.234 487.058 80.706C487.058 80.046 487.058 79.254 487.058 78.33C487.058 72.258 488.906 67.044 492.602 62.688C496.298 58.2 501.512 54.768 508.244 52.392C514.976 50.016 522.83 48.828 531.806 48.828C541.442 48.828 549.494 50.082 555.962 52.59C562.562 55.098 567.578 58.794 571.01 63.678C574.574 68.562 576.356 74.7 576.356 82.092V129.414C576.356 131.79 577.016 133.572 578.336 134.76C579.788 135.816 581.372 136.344 583.088 136.344H589.622V154.362C588.302 155.022 586.256 155.682 583.484 156.342C580.712 157.134 577.346 157.53 573.386 157.53C569.558 157.53 566.126 156.936 563.09 155.748C560.186 154.692 557.744 153.174 555.764 151.194C553.784 149.082 552.398 146.574 551.606 143.67H550.22C547.976 146.442 545.204 148.884 541.904 150.996C538.736 153.108 534.974 154.758 530.618 155.946C526.394 157.134 521.51 157.728 515.966 157.728ZM525.272 136.938C528.968 136.938 532.268 136.41 535.172 135.354C538.076 134.166 540.518 132.648 542.498 130.8C544.478 128.82 545.996 126.444 547.052 123.672C548.24 120.9 548.834 117.93 548.834 114.762V109.02C541.442 109.02 534.842 109.548 529.034 110.604C523.226 111.528 518.606 113.178 515.174 115.554C511.874 117.93 510.224 121.23 510.224 125.454C510.224 127.83 510.818 129.876 512.006 131.592C513.194 133.308 514.91 134.628 517.154 135.552C519.398 136.476 522.104 136.938 525.272 136.938Z" fill="black"/>
<path d="M593.399 155.352V51.204H616.169L618.347 67.44H619.733C621.053 64.008 622.769 60.906 624.881 58.134C626.993 55.23 629.633 52.92 632.801 51.204C635.969 49.488 639.665 48.63 643.889 48.63C646.133 48.63 648.179 48.894 650.027 49.422C651.875 49.818 653.261 50.214 654.185 50.61V75.558H645.671C641.579 75.558 637.949 76.152 634.781 77.34C631.745 78.396 629.171 80.112 627.059 82.488C624.947 84.864 623.363 87.768 622.307 91.2C621.383 94.632 620.921 98.658 620.921 103.278V155.352H593.399Z" fill="black"/>
<path d="M658.716 155.352V12H686.238V94.566L722.67 51.204H754.944L719.304 91.992L756.726 155.352H725.244L701.286 111.396L686.238 126.048V155.352H658.716Z" fill="black"/>
<path d="M802.292 157.728C790.808 157.728 781.172 155.814 773.384 151.986C765.596 148.026 759.722 142.02 755.762 133.968C751.802 125.916 749.822 115.686 749.822 103.278C749.822 90.738 751.802 80.508 755.762 72.588C759.722 64.536 765.53 58.596 773.186 54.768C780.974 50.808 790.478 48.828 801.698 48.828C812.258 48.828 821.168 50.742 828.428 54.57C835.688 58.266 841.166 64.074 844.862 71.994C848.558 79.782 850.406 89.88 850.406 102.288V109.416H777.74C778.004 115.488 778.928 120.636 780.512 124.86C782.228 129.084 784.802 132.252 788.234 134.364C791.798 136.344 796.484 137.334 802.292 137.334C805.46 137.334 808.298 136.938 810.806 136.146C813.446 135.354 815.69 134.166 817.538 132.582C819.386 130.998 820.838 129.018 821.894 126.642C822.95 124.266 823.478 121.56 823.478 118.524H850.406C850.406 125.124 849.218 130.866 846.842 135.75C844.466 140.634 841.166 144.726 836.942 148.026C832.718 151.194 827.636 153.636 821.696 155.352C815.888 156.936 809.42 157.728 802.292 157.728ZM778.136 91.992H822.092C822.092 88.032 821.564 84.6 820.508 81.696C819.584 78.792 818.264 76.416 816.548 74.568C814.832 72.72 812.72 71.4 810.212 70.608C807.836 69.684 805.13 69.222 802.094 69.222C797.078 69.222 792.854 70.08 789.422 71.796C786.122 73.38 783.548 75.888 781.7 79.32C779.984 82.62 778.796 86.844 778.136 91.992Z" fill="black"/>
<path d="M891.785 157.728C885.185 157.728 879.839 156.54 875.747 154.164C871.655 151.788 868.685 148.62 866.837 144.66C864.989 140.568 864.065 136.08 864.065 131.196V72.39H851.195V51.204H865.055L870.203 21.504H891.587V51.204H910.595V72.39H891.587V126.642C891.587 129.81 892.313 132.252 893.765 133.968C895.217 135.552 897.593 136.344 900.893 136.344H910.595V154.56C909.011 155.088 907.163 155.55 905.051 155.946C902.939 156.474 900.695 156.87 898.319 157.134C895.943 157.53 893.765 157.728 891.785 157.728Z" fill="black"/>
<path d="M965.797 157.728C954.313 157.728 944.677 155.814 936.889 151.986C929.101 148.026 923.227 142.02 919.267 133.968C915.307 125.916 913.327 115.686 913.327 103.278C913.327 90.738 915.307 80.508 919.267 72.588C923.227 64.536 929.035 58.596 936.691 54.768C944.479 50.808 953.983 48.828 965.203 48.828C975.763 48.828 984.673 50.742 991.933 54.57C999.193 58.266 1004.67 64.074 1008.37 71.994C1012.06 79.782 1013.91 89.88 1013.91 102.288V109.416H941.245C941.509 115.488 942.433 120.636 944.017 124.86C945.733 129.084 948.307 132.252 951.739 134.364C955.303 136.344 959.989 137.334 965.797 137.334C968.965 137.334 971.803 136.938 974.311 136.146C976.951 135.354 979.195 134.166 981.043 132.582C982.891 130.998 984.343 129.018 985.399 126.642C986.455 124.266 986.983 121.56 986.983 118.524H1013.91C1013.91 125.124 1012.72 130.866 1010.35 135.75C1007.97 140.634 1004.67 144.726 1000.45 148.026C996.223 151.194 991.141 153.636 985.201 155.352C979.393 156.936 972.925 157.728 965.797 157.728ZM941.641 91.992H985.597C985.597 88.032 985.069 84.6 984.013 81.696C983.089 78.792 981.769 76.416 980.053 74.568C978.337 72.72 976.225 71.4 973.717 70.608C971.341 69.684 968.635 69.222 965.599 69.222C960.583 69.222 956.359 70.08 952.927 71.796C949.627 73.38 947.053 75.888 945.205 79.32C943.489 82.62 942.301 86.844 941.641 91.992Z" fill="black"/>
<path d="M1024.2 35.958V12.198H1051.73V35.958H1024.2ZM1024.2 155.352V51.204H1051.73V155.352H1024.2Z" fill="#E8401F"/>
<path d="M1094.61 157.728C1091.18 157.728 1087.49 157.332 1083.53 156.54C1079.7 155.748 1076.07 154.362 1072.64 152.382C1069.2 150.27 1066.37 147.3 1064.12 143.472C1062.01 139.512 1060.95 134.496 1060.95 128.424C1060.95 121.164 1062.54 115.158 1065.71 110.406C1068.87 105.654 1073.36 101.958 1079.17 99.318C1085.11 96.546 1092.17 94.632 1100.35 93.576C1108.54 92.52 1117.58 91.992 1127.48 91.992V84.27C1127.48 81.234 1126.95 78.594 1125.9 76.35C1124.97 74.106 1123.26 72.324 1120.75 71.004C1118.37 69.684 1115.01 69.024 1110.65 69.024C1106.3 69.024 1102.73 69.552 1099.96 70.608C1097.32 71.664 1095.41 73.05 1094.22 74.766C1093.16 76.35 1092.63 78.132 1092.63 80.112V82.488H1065.9C1065.77 81.828 1065.71 81.234 1065.71 80.706C1065.71 80.046 1065.71 79.254 1065.71 78.33C1065.71 72.258 1067.55 67.044 1071.25 62.688C1074.95 58.2 1080.16 54.768 1086.89 52.392C1093.62 50.016 1101.48 48.828 1110.45 48.828C1120.09 48.828 1128.14 50.082 1134.61 52.59C1141.21 55.098 1146.22 58.794 1149.66 63.678C1153.22 68.562 1155 74.7 1155 82.092V129.414C1155 131.79 1155.66 133.572 1156.98 134.76C1158.44 135.816 1160.02 136.344 1161.73 136.344H1168.27V154.362C1166.95 155.022 1164.9 155.682 1162.13 156.342C1159.36 157.134 1155.99 157.53 1152.03 157.53C1148.2 157.53 1144.77 156.936 1141.74 155.748C1138.83 154.692 1136.39 153.174 1134.41 151.194C1132.43 149.082 1131.04 146.574 1130.25 143.67H1128.87C1126.62 146.442 1123.85 148.884 1120.55 150.996C1117.38 153.108 1113.62 154.758 1109.27 155.946C1105.04 157.134 1100.16 157.728 1094.61 157.728ZM1103.92 136.938C1107.61 136.938 1110.92 136.41 1113.82 135.354C1116.72 134.166 1119.17 132.648 1121.15 130.8C1123.13 128.82 1124.64 126.444 1125.7 123.672C1126.89 120.9 1127.48 117.93 1127.48 114.762V109.02C1120.09 109.02 1113.49 109.548 1107.68 110.604C1101.87 111.528 1097.25 113.178 1093.82 115.554C1090.52 117.93 1088.87 121.23 1088.87 125.454C1088.87 127.83 1089.47 129.876 1090.65 131.592C1091.84 133.308 1093.56 134.628 1095.8 135.552C1098.05 136.476 1100.75 136.938 1103.92 136.938Z" fill="#E8401F"/>
</svg>
