<svg width="562" height="384" viewBox="0 0 562 384" fill="none" xmlns="http://www.w3.org/2000/svg">
<path fill-rule="evenodd" clip-rule="evenodd" d="M482.244 273.177C477.001 273.177 472.364 269.773 470.795 264.77L394.527 21.7134C385.67 -6.89874 347.425 -7.30173 340.179 20.9074L286.881 223.103C283.872 234.518 267.919 235.184 263.969 224.059L216.587 90.6242C212.562 79.3405 202.095 72.4897 190.42 72.4897C178.745 72.4897 168.278 79.7435 162.642 90.2212L92.3916 265.639C90.568 270.192 86.1567 273.177 81.2517 273.177H12C5.37257 273.177 0 278.55 0 285.177V320.417C0 327.044 5.37258 332.417 12 332.417H109.099C120.774 332.417 131.241 325.969 135.669 314.685L175.903 210.407C179.916 200.006 194.706 200.221 198.415 210.734L251.647 361.599C251.891 362.292 252.067 363.021 252.21 363.742C257.583 390.855 300.011 390.881 306.765 363.044L358.478 168.673C361.572 157.043 377.951 156.699 381.531 168.188L425.928 310.655C429.149 323.148 440.421 332.417 453.304 332.417H550C556.627 332.417 562 327.044 562 320.417V285.177C562 278.55 556.627 273.177 550 273.177H482.244Z" fill="white"/>
</svg>
